<svg xmlns="http://www.w3.org/2000/svg" width="46" height="60" fill="none" viewBox="0 0 46 60">
  <g clip-path="url(#clip0)">
    <path fill="#FBCA7A" d="M35.431 6.519H10.564a4.106 4.106 0 00-4.108 4.11v38.207a4.112 4.112 0 004.108 4.111H35.43a4.106 4.106 0 004.108-4.11v-38.22a4.112 4.112 0 00-4.108-4.098zm-.774 41.695H11.349V11.246h23.308v36.968z"/>
    <path stroke="#22AB99" stroke-linecap="round" stroke-linejoin="round" stroke-width="4" d="M33.472 1.175h11.354v12.931M12.528 1.175H1.174v12.931M33.472 58.826h11.354V45.894M12.528 58.826H1.174V45.894"/>
    <path fill="#FBCA7A" d="M31.353 14.505H19.74v20.766h11.613V14.505z" opacity=".5"/>
    <path fill="#22AB99" d="M24.975 29.04H13.66v15.468h11.314V29.04z" opacity=".95"/>
  </g>
  <defs>
    <clipPath id="clip0">
      <path fill="#fff" d="M0 0h46v60H0z"/>
    </clipPath>
  </defs>
</svg>
