<svg xmlns="http://www.w3.org/2000/svg" width="69" height="70" fill="none" viewBox="0 0 69 70">
  <path fill="#FDC161" d="M36.79 23.663a9.5 9.5 0 00-.9-.46.66.66 0 01-.4-.4v-.2a.17.17 0 000-.12c.03-.44.09-.878.18-1.31.08-.28.17-.33.46-.38.29-.05.84 0 1.26-.09.42-.09.76-.44.49-.92-.27-.48-.43-.71-.63-1.07a.431.431 0 01.09-.61c.326-.353.66-.687 1-1 .2-.2.28-.21.53-.07.25.14.7.4 1.06.59.54.3.94.07 1-.55v-1.18c0-.4.08-.4.42-.5.34-.1.92-.12 1.38-.21H43c.22.05.31.21.4.39.09.18.32.55.44.83a.62.62 0 001.1.08c.21-.35.46-.67.69-1a.46.46 0 01.5-.21c.494.093.977.24 1.44.44a.4.4 0 01.27.41c-.005.415-.036.829-.09 1.24a.66.66 0 00.34.7.61.61 0 00.57 0l1.22-.5a.421.421 0 01.6.16c.27.33.54.66.8 1a.4.4 0 010 .61c-.22.32-.47.62-.7.93a.75.75 0 00.42 1.25c.41.09.84.16 1.26.24.21 0 .28.15.31.36 0 .38 0 .76.07 1.15v.45a.56.56 0 01-.33.29l-1.05.37a.628.628 0 00-.37.33.88.88 0 00.29 1.17c.273.24.533.49.78.75a.38.38 0 01.13.45c-.191.433-.408.854-.65 1.26a.41.41 0 01-.48.19l-1.18-.26a.86.86 0 00-1 1c.09.41.2.81.3 1.22a.41.41 0 01-.21.5c-.37.23-.75.44-1.14.65a.38.38 0 01-.5-.08c-.25-.25-.52-.48-.75-.75a.9.9 0 00-1.08-.31.64.64 0 00-.45.42c-.12.34-.24.68-.34 1a.58.58 0 01-.34.39h-.71a6.987 6.987 0 00-.79 0c-.28 0-.35-.06-.41-.34s-.17-.81-.26-1.21a.82.82 0 00-1.29-.47c-.33.25-.63.53-1 .78a.42.42 0 01-.53 0 8.15 8.15 0 01-1-.8.45.45 0 01-.15-.62c.16-.39.31-.79.45-1.18a.72.72 0 00-.69-.95c-.42 0-.84.08-1.26.12-.42.04-.42 0-.54-.32-.12-.32-.27-.74-.41-1.11-.14-.37-.11-.51.23-.77s.67-.48 1-.75a.61.61 0 00-.12-1.02zm7.3 2.93a2.83 2.83 0 100-5.66 2.83 2.83 0 000 5.66z"/>
  <path fill="#EEA520" d="M24.87 15.633l-.57-.29a.44.44 0 01-.26-.26v-.08-.07c.019-.283.06-.563.12-.84 0-.18.1-.22.29-.24.19-.02.54 0 .81-.06s.48-.29.31-.59l-.4-.69a.27.27 0 01.05-.39l.66-.65c.13-.13.18-.13.34 0l.68.38c.34.18.6 0 .61-.36-.016-.25-.016-.5 0-.75 0-.23.05-.26.26-.32.21-.06.6-.08.89-.14h.13c.14 0 .2.14.26.25.06.11.2.35.27.53a.4.4 0 00.71 0c.13-.22.29-.42.44-.64a.3.3 0 01.32-.13c.314.063.623.157.92.28a.25.25 0 01.17.27c.002.264-.014.528-.05.79a.4.4 0 00.21.44.36.36 0 00.37 0l.78-.32c.19-.07.26-.05.38.1.12.15.35.43.51.65.16.22.13.22 0 .39s-.3.39-.44.59a.48.48 0 00.3.79l.81.15a.209.209 0 01.19.23v1.02a.33.33 0 01-.21.19l-.67.24a.39.39 0 00-.24.21.57.57 0 00.18.75c.18.15.35.31.51.47a.29.29 0 01.08.3 7.612 7.612 0 01-.42.8.25.25 0 01-.3.12l-.76-.17a.55.55 0 00-.65.66c.06.27.13.53.19.79a.26.26 0 01-.13.31c-.24.15-.49.29-.73.42a.24.24 0 01-.32-.05c-.16-.16-.34-.31-.48-.48a.58.58 0 00-.69-.2.41.41 0 00-.3.27c-.07.22-.15.44-.21.66a.349.349 0 01-.22.25h-.45c-.17-.01-.34-.01-.51 0-.18 0-.22 0-.26-.21-.04-.21-.11-.52-.17-.78a.52.52 0 00-.82-.3l-.62.5a.29.29 0 01-.35 0c-.23-.16-.44-.33-.66-.51-.22-.18-.17-.21-.1-.4.07-.19.2-.5.29-.75a.46.46 0 00-.45-.61c-.26 0-.53.05-.8.08s-.27 0-.35-.21c-.08-.21-.17-.47-.26-.71s-.07-.33.15-.5c.22-.17.43-.3.63-.47a.39.39 0 00.03-.71zm4.67 1.88a1.81 1.81 0 100-3.62 1.81 1.81 0 000 3.62z"/>
  <path fill="#010201" d="M40.45 31.003l-.08.17a.53.53 0 010-.25l.08.08z"/>
  <path fill="#25AB99" d="M42 60.813a4.91 4.91 0 01-2-8.9l-2.54-9.08c-.104.01-.208.01-.31 0a4.93 4.93 0 01-3.7-2.69l-7 2a4.24 4.24 0 01-.05.71 4.91 4.91 0 11-7.35-5v.07a.34.34 0 00.09-.14l-.14.02-2.49-8.94v-.05a4.385 4.385 0 01-.8-.06 4.94 4.94 0 113.29-.75l2.55 9.1h-.07l.08.05c.216-.014.433-.014.65 0a4.93 4.93 0 013.49 2.33l7.26-2v-.27a4.92 4.92 0 117.04 5.12l2.47 8.67h-.06l.07.05v-.05a4.935 4.935 0 11-.48 9.81zm-25.37-39.58a2.56 2.56 0 10-.765 5.062 2.56 2.56 0 00.764-5.062zm5.17 18.46a2.57 2.57 0 10-.683 5.095 2.57 2.57 0 00.682-5.095zm16.62-4.37a2.57 2.57 0 10-.765 5.082 2.57 2.57 0 00.764-5.082zm4.72 18.35a2.56 2.56 0 10-.761 5.062 2.56 2.56 0 00.76-5.062z"/>
  <path fill="#010201" d="M37.42 60.713l-.09.19a.94.94 0 01-.11-.36l.2.17zM39.35 48.503l-.13-.1v-.09a.48.48 0 01.13.19z"/>
  <path fill="#010201" d="M39.35 48.503l-.13-.1v-.09a.48.48 0 01.13.19zM37.22 60.543l.2.17-.09.19a.94.94 0 01-.11-.36z"/>
  <path fill="#25AB99" d="M57.76 59.493a2 2 0 01-1.45-3.38 30.27 30.27 0 006.43-32.35c-4.58-11.63-15.25-19.02-28.53-19.76a2.003 2.003 0 01.22-4c14.88.84 26.86 9.17 32 22.3a34.19 34.19 0 01-7.23 36.57 2 2 0 01-1.44.62zM35.37 69.293c-5.73 0-13.11-1.29-18.37-4.68C4.44 56.586-1.16 45.363.2 30.943a2.008 2.008 0 014 .37C3 44.083 8 54.523 18.92 61.093c10.2 6.12 24 5.46 32-.87a2 2 0 012.49 3.13 28.73 28.73 0 01-18.04 5.94zM3.33 26.193c-.163 0-.324-.02-.48-.06a2 2 0 01-1.46-2.45C6.38 3.173 26.74.803 27 .783a2 2 0 012.19 1.81 1.998 1.998 0 01-1.78 2.23c-.79.08-17.84 2.18-22.14 19.83a2 2 0 01-1.94 1.54z"/>
</svg>
