<svg id="Capa_1" enable-background="new 0 0 512 512" height="512" viewBox="0 0 512 512" width="512" xmlns="http://www.w3.org/2000/svg"><g><path d="m481.44 20.345h-159.733c-16.85 0-30.559 13.72-30.559 30.584v36.432c-28.054-15.439-60.257-24.228-94.473-24.228-108.446 0-196.675 88.287-196.675 196.805 0 47.055 16.86 92.596 47.476 128.232 29.436 34.263 69.754 57.387 113.885 65.405l27.512 34.332c1.897 2.369 4.769 3.747 7.804 3.747s5.905-1.378 7.804-3.747l27.513-34.332c44.13-8.019 84.449-31.143 113.884-65.405 30.615-35.637 47.476-81.178 47.476-128.232 0-17.894-2.399-35.237-6.892-51.726h42.104l23.663 16.597c1.702 1.193 3.711 1.813 5.743 1.813.989 0 1.984-.146 2.952-.446 2.953-.912 5.319-3.141 6.407-6.034l4.485-11.929h9.626c16.851 0 30.56-13.72 30.56-30.583v-126.701c-.002-16.865-13.711-30.584-30.562-30.584zm-256.468 414.143c-2.448.395-4.663 1.685-6.214 3.62l-22.082 27.556-22.081-27.556c-1.551-1.936-3.766-3.226-6.214-3.62-85.978-13.842-148.381-87.252-148.381-174.55 0-97.491 79.257-176.806 176.676-176.806s176.676 79.314 176.676 176.806c0 87.298-62.403 160.708-148.38 174.55zm267.028-256.858c0 5.836-4.737 10.583-10.56 10.583h-16.55c-4.165 0-7.895 2.582-9.36 6.48l-2.382 6.334-15.686-11.002c-1.683-1.18-3.688-1.813-5.742-1.813h-51.89c-13.98-35.623-38.055-66.212-68.682-88.223v-49.06c0-5.836 4.736-10.584 10.559-10.584h159.733c5.822 0 10.56 4.748 10.56 10.584z"/><path d="m284.392 214.819-44.633-10.344-23.625-39.285c-4.145-6.893-11.419-11.008-19.459-11.007-8.039 0-15.313 4.115-19.456 11.007l-23.625 39.285-44.634 10.344c-7.828 1.815-13.985 7.462-16.47 15.106-2.486 7.648-.825 15.841 4.444 21.915l30.036 34.627-3.962 45.684c-.694 8.015 2.775 15.621 9.283 20.348 6.502 4.722 14.801 5.672 22.2 2.533l42.184-17.886 42.184 17.886c2.884 1.223 5.904 1.825 8.902 1.824 4.693 0 9.33-1.476 13.298-4.357 6.508-4.727 9.978-12.333 9.283-20.348l-3.962-45.684 30.036-34.627c5.27-6.074 6.931-14.267 4.444-21.915-2.483-7.644-8.64-13.29-16.468-15.106zm-3.082 23.916-32.811 37.825c-1.773 2.045-2.643 4.721-2.409 7.417l4.327 49.902c.11 1.268-.543 2.025-1.11 2.437-.562.41-1.478.794-2.641.302l-46.087-19.54c-1.247-.528-2.575-.793-3.903-.793s-2.656.265-3.903.793l-46.087 19.54c-1.162.492-2.078.108-2.641-.302-.567-.411-1.221-1.169-1.11-2.437l4.327-49.902c.233-2.696-.636-5.372-2.409-7.417l-32.811-37.825c-.833-.96-.749-1.959-.531-2.627.216-.666.732-1.52 1.965-1.805l48.762-11.301c2.639-.612 4.916-2.268 6.312-4.589l25.81-42.918c.652-1.085 1.62-1.313 2.317-1.313s1.666.228 2.319 1.313l25.809 42.917c1.396 2.321 3.673 3.977 6.312 4.589l48.761 11.301c1.232.285 1.749 1.139 1.965 1.805.216.669.3 1.668-.533 2.628z"/></g></svg>